<?xml version="1.0" encoding="UTF-8" standalone="no"?>
<!-- Uploaded to: SVG Repo, www.svgrepo.com, Generator: SVG Repo Mixer Tools -->

<svg
   width="800px"
   height="800px"
   viewBox="0 -0.18 64 64"
   version="1.1"
   id="svg18"
   sodipodi:docname="hospital-files-svgrepo-com.svg"
   inkscape:version="1.2.2 (732a01da63, 2022-12-09)"
   xmlns:inkscape="http://www.inkscape.org/namespaces/inkscape"
   xmlns:sodipodi="http://sodipodi.sourceforge.net/DTD/sodipodi-0.dtd"
   xmlns="http://www.w3.org/2000/svg"
   xmlns:svg="http://www.w3.org/2000/svg">
  <defs
     id="defs22" />
  <sodipodi:namedview
     id="namedview20"
     pagecolor="#505050"
     bordercolor="#eeeeee"
     borderopacity="1"
     inkscape:showpageshadow="0"
     inkscape:pageopacity="0"
     inkscape:pagecheckerboard="0"
     inkscape:deskcolor="#505050"
     showgrid="false"
     inkscape:zoom="0.36990524"
     inkscape:cx="-517.70016"
     inkscape:cy="159.50031"
     inkscape:window-width="1920"
     inkscape:window-height="1017"
     inkscape:window-x="-8"
     inkscape:window-y="-8"
     inkscape:window-maximized="1"
     inkscape:current-layer="svg18" />
  <path
     id="Path_58"
     data-name="Path 58"
     d="m 64,25.565 v 36.08 a 2,2 0 0 1 -2,2 H 2 a 2.006,2.006 0 0 1 -2,-2 V 18.32 a 2,2 0 0 1 2,-2 H 3.67 V 8.73 a 2.006,2.006 0 0 1 2,-2 h 2 V 2 a 2.006,2.006 0 0 1 2,-2 H 58.7 a 2.006,2.006 0 0 1 2,2 V 23.565 H 62 a 1.993,1.993 0 0 1 2,2 z m -4,34.08 V 27.565 H 25.675 a 2.041,2.041 0 0 1 -1.38,-0.55 l -7.09,-6.7 H 4 v 39.33 z M 56.7,23.565 V 4 H 11.675 v 2.73 h 40.03 a 2.006,2.006 0 0 1 2,2 v 14.835 z m -7,0 V 10.73 H 7.675 v 5.59 h 10.33 a 2.013,2.013 0 0 1 1.38,0.54 l 7.09,6.705 z"
     fill="#03373d" />
  <path
     id="Path_60"
     data-name="Path 60"
     d="m 56.7,4 v 19.57 h -3 V 8.73 a 2.006,2.006 0 0 0 -2,-2 H 11.675 V 4 h 45.03 z"
     fill="#ef472e" />
  <path
     id="Path_61"
     data-name="Path 61"
     d="M 49.7,10.73 V 23.57 H 26.475 l -7.09,-6.71 a 2.013,2.013 0 0 0 -1.38,-0.54 H 7.675 v -5.59 h 42.03 z"
     fill="#f2f2f2" />
  <path
     style="fill:#4788c7;fill-opacity:1;stroke-width:0.955795;fill-rule:nonzero"
     d="m 671.22442,199.92464 -0.25668,-96.84955 -2.89523,-4.703617 C 664.57115,92.683168 657.9127,87.991002 651.34246,86.581939 647.92809,85.849687 572.83748,85.543608 396.60768,85.543608 H 146.71446 V 69.295102 53.046595 H 427.71804 708.72162 V 174.91039 296.77419 H 690.10136 671.4811 Z"
     id="path3959"
     transform="matrix(0.08,0,0,0.08,0,-0.18)" />
  <path
     style="fill:#d3d3d3;fill-opacity:1;fill-rule:nonzero;stroke-width:0.955795"
     d="m 672.06497,291.75627 c -0.33149,-2.75985 -0.60646,-46.42431 -0.61102,-97.03213 l -0.008,-92.01422 -2.27616,-3.605667 C 666.34217,94.625507 660.72295,89.621448 656.22244,87.57458 653.10237,86.155547 630.96796,86.000124 399.76105,85.773773 L 146.71446,85.526041 V 69.286318 53.046595 H 427.71804 708.72162 V 174.91039 296.77419 H 690.69466 672.6677 Z"
     id="path6342"
     transform="matrix(0.08,0,0,0.08,0,-0.18)" />
  <path
     style="fill:#c23131;fill-opacity:1;fill-rule:nonzero;stroke-width:1.91159"
     d="m 350.33747,634.16965 -0.51668,-39.66547 -36.79809,-0.51917 -36.79809,-0.51918 V 542.85 c 0,-27.83871 0.21506,-50.72798 0.4779,-50.86504 0.26284,-0.13707 16.82198,-0.78223 36.79809,-1.4337 l 36.32019,-1.18447 0.51748,-38.70968 0.51747,-38.70968 h 48.66636 48.66636 l 0.51748,38.70968 0.51748,38.70968 36.79809,0.51917 36.79808,0.51917 v 51.53035 51.53035 l -36.79808,0.51918 -36.79809,0.51917 -0.51668,39.66547 -0.51668,39.66548 H 399.5221 350.85415 Z"
     id="path8978"
     transform="matrix(0.08,0,0,0.08,0,-0.18)" />
  <path
     style="fill:#3888c7;fill-opacity:1;fill-rule:nonzero;stroke-width:2.7034"
     d="M 50.012809,502.83149 V 258.17423 h 82.805081 82.80508 l 43.57864,41.48886 c 23.96825,22.81888 46.23585,42.89159 49.48356,44.60602 4.31683,2.27883 64.1171,3.11716 222.35425,3.11716 H 747.48874 V 547.43751 747.48874 H 398.75078 50.012809 Z M 450.11528,635.37633 v -39.12078 l 35.81999,-0.7543 35.81998,-0.75433 0.733,-53.39205 0.733,-53.39205 h -36.55298 -36.55299 v -39.19923 -39.19923 h -50.01281 -50.0128 v 30.75112 c 0,16.91311 -0.73679,34.43502 -1.63729,38.93757 l -1.63731,8.18647 -36.26745,1.94246 -36.26746,1.94247 0.73307,51.71123 0.73307,51.71124 35.49731,0.75206 35.49731,0.75208 1.67437,8.37188 c 0.92091,4.60456 1.67438,22.2099 1.67438,39.12302 v 30.75112 h 50.0128 50.01281 z"
     id="path15170"
     transform="matrix(0.08,0,0,0.08,0,-0.18)" />
</svg>
